<svg width="525" height="339" viewBox="0 0 525 339" fill="none" xmlns="http://www.w3.org/2000/svg">
<path d="M0 30.4719C0 13.6427 13.9289 0 31.1111 0H493.889C511.071 0 525 13.6427 525 30.4719V137.124C525 153.953 511.071 167.596 493.889 167.596H31.1111C13.9289 167.596 0 153.953 0 137.124V30.4719Z" fill="#E6FE58"/>
<path d="M99.8878 150.379C88.5634 150.379 78.11 148.977 68.5278 146.174C59.07 143.248 50.9189 139.043 44.0745 133.558C37.23 127.952 31.9411 121.004 28.2078 112.716C24.4745 104.305 22.6078 94.6762 22.6078 83.8282C22.6078 74.1991 24.5989 65.3622 28.5811 57.3177C32.6878 49.1512 38.4123 42.0817 45.7545 36.1092C53.0967 30.1367 61.8078 25.505 71.8878 22.214C81.9678 18.923 93.0434 17.2776 105.114 17.2776C114.572 17.2776 123.283 18.3136 131.248 20.3857C139.337 22.3359 146.368 24.8955 152.341 28.0646C158.439 31.2337 163.479 34.5856 167.461 38.1204L145.434 62.0713C142.074 59.6335 138.341 57.4395 134.234 55.4893C130.252 53.4173 125.834 51.7718 120.981 50.5529C116.128 49.2121 110.652 48.5417 104.554 48.5417C98.4567 48.5417 92.7323 49.4559 87.3811 51.2842C82.1545 52.9907 77.6123 55.4284 73.7545 58.5975C69.8967 61.6447 66.8478 65.3622 64.6078 69.7502C62.4923 74.0163 61.4345 78.7089 61.4345 83.8282C61.4345 90.2883 62.5545 95.7732 64.7945 100.283C67.1589 104.671 70.3323 108.267 74.3145 111.07C78.2967 113.874 82.9011 115.946 88.1278 117.286C93.3545 118.505 98.7678 119.115 104.368 119.115C110.092 119.115 115.257 118.566 119.861 117.469C124.59 116.372 128.697 114.849 132.181 112.898C135.666 110.948 138.341 108.632 140.208 105.951C142.074 103.147 143.008 100.039 143.008 96.6264V92.6041L148.048 101.38H101.008V75.418H177.541C177.666 77.1244 177.79 79.3184 177.914 81.9999C178.039 84.5595 178.101 86.9364 178.101 89.1303C178.226 91.3243 178.288 92.726 178.288 93.3355C178.288 102.599 176.421 110.765 172.688 117.835C168.954 124.904 163.603 130.877 156.634 135.752C149.79 140.506 141.577 144.163 131.994 146.722C122.412 149.16 111.71 150.379 99.8878 150.379Z" fill="black"/>
<path d="M232.782 148.551V90.0445L235.956 103.026L169.316 20.5685H213.742L262.649 83.4626H240.996L288.036 20.5685H329.849L268.809 99.5517L270.116 88.5818V148.551H232.782Z" fill="black"/>
<path d="M334.463 148.551V20.5685H366.756L423.876 93.5183H400.729L458.036 20.5685H489.956V148.551H454.303V112.898C454.303 102.66 454.552 93.0917 455.049 84.1939C455.672 75.2961 456.667 66.2764 458.036 57.1348L461.769 68.4704L418.276 120.029H405.956L362.276 67.9219L366.383 57.1348C367.876 66.1545 368.872 75.1133 369.369 84.0111C369.867 92.787 370.116 102.416 370.116 112.898V148.551H334.463Z" fill="black"/>
<path d="M50.198 335.191L111.425 207.209H117.398L178.998 335.191H174.145L125.798 234.268C124.927 232.684 123.994 230.916 122.998 228.966C122.127 227.016 121.131 224.944 120.011 222.75C119.016 220.556 118.02 218.362 117.025 216.168C116.029 213.974 114.971 211.841 113.851 209.769H114.598C113.851 211.719 112.98 213.791 111.985 215.985C110.989 218.057 109.931 220.251 108.811 222.567C107.691 224.761 106.634 226.894 105.638 228.966C104.767 230.916 103.896 232.744 103.025 234.451L54.8647 335.191H50.198ZM72.2247 294.42L74.0914 290.397H155.478L157.345 294.42H72.2247Z" fill="white"/>
<path d="M214.694 335.191V207.209H277.787C286.125 207.209 293.218 208.733 299.067 211.78C305.04 214.705 309.583 218.788 312.694 224.029C315.929 229.271 317.547 235.426 317.547 242.495C317.547 250.54 315.991 257.67 312.88 263.887C309.769 269.981 305.227 274.796 299.254 278.33C293.28 281.743 286.063 283.45 277.6 283.45H218.8V335.191H214.694ZM218.8 279.427H277.04C285.005 279.427 291.663 277.965 297.014 275.039C302.489 271.992 306.534 267.665 309.147 262.058C311.885 256.452 313.254 249.931 313.254 242.495C313.254 236.035 311.885 230.49 309.147 225.858C306.534 221.226 302.551 217.63 297.2 215.071C291.849 212.511 285.129 211.231 277.04 211.231H218.8V279.427Z" fill="white"/>
<path d="M362.714 335.191V207.209H425.808C434.146 207.209 441.239 208.733 447.088 211.78C453.061 214.705 457.603 218.788 460.714 224.029C463.95 229.271 465.568 235.426 465.568 242.495C465.568 250.54 464.012 257.67 460.901 263.887C457.79 269.981 453.248 274.796 447.275 278.33C441.301 281.743 434.083 283.45 425.621 283.45H366.821V335.191H362.714ZM366.821 279.427H425.061C433.026 279.427 439.683 277.965 445.034 275.039C450.51 271.992 454.555 267.665 457.168 262.058C459.906 256.452 461.274 249.931 461.274 242.495C461.274 236.035 459.906 230.49 457.168 225.858C454.555 221.226 450.572 217.63 445.221 215.071C439.87 212.511 433.15 211.231 425.061 211.231H366.821V279.427Z" fill="white"/>
<path d="M0 30.4719C0 13.6427 13.9289 0 31.1111 0H493.889C511.071 0 525 13.6427 525 30.4719V137.124C525 153.953 511.071 167.596 493.889 167.596H31.1111C13.9289 167.596 0 153.953 0 137.124V30.4719Z" fill="#E6FE58"/>
<path d="M99.8878 150.379C88.5634 150.379 78.11 148.977 68.5278 146.174C59.07 143.248 50.9189 139.043 44.0745 133.558C37.23 127.952 31.9411 121.004 28.2078 112.716C24.4745 104.305 22.6078 94.6762 22.6078 83.8282C22.6078 74.1991 24.5989 65.3622 28.5811 57.3177C32.6878 49.1512 38.4123 42.0817 45.7545 36.1092C53.0967 30.1367 61.8078 25.505 71.8878 22.214C81.9678 18.923 93.0434 17.2776 105.114 17.2776C114.572 17.2776 123.283 18.3136 131.248 20.3857C139.337 22.3359 146.368 24.8955 152.341 28.0646C158.439 31.2337 163.479 34.5856 167.461 38.1204L145.434 62.0713C142.074 59.6335 138.341 57.4395 134.234 55.4893C130.252 53.4173 125.834 51.7718 120.981 50.5529C116.128 49.2121 110.652 48.5417 104.554 48.5417C98.4567 48.5417 92.7323 49.4559 87.3811 51.2842C82.1545 52.9907 77.6123 55.4284 73.7545 58.5975C69.8967 61.6447 66.8478 65.3622 64.6078 69.7502C62.4923 74.0163 61.4345 78.7089 61.4345 83.8282C61.4345 90.2883 62.5545 95.7732 64.7945 100.283C67.1589 104.671 70.3323 108.267 74.3145 111.07C78.2967 113.874 82.9011 115.946 88.1278 117.286C93.3545 118.505 98.7678 119.115 104.368 119.115C110.092 119.115 115.257 118.566 119.861 117.469C124.59 116.372 128.697 114.849 132.181 112.898C135.666 110.948 138.341 108.632 140.208 105.951C142.074 103.147 143.008 100.039 143.008 96.6264V92.6041L148.048 101.38H101.008V75.418H177.541C177.666 77.1244 177.79 79.3184 177.914 81.9999C178.039 84.5595 178.101 86.9364 178.101 89.1303C178.226 91.3243 178.288 92.726 178.288 93.3355C178.288 102.599 176.421 110.765 172.688 117.835C168.954 124.904 163.603 130.877 156.634 135.752C149.79 140.506 141.577 144.163 131.994 146.722C122.412 149.16 111.71 150.379 99.8878 150.379Z" fill="black"/>
<path d="M232.782 148.551V90.0445L235.956 103.026L169.316 20.5685H213.742L262.649 83.4626H240.996L288.036 20.5685H329.849L268.809 99.5517L270.116 88.5818V148.551H232.782Z" fill="black"/>
<path d="M334.463 148.551V20.5685H366.756L423.876 93.5183H400.729L458.036 20.5685H489.956V148.551H454.303V112.898C454.303 102.66 454.552 93.0917 455.049 84.1939C455.672 75.2961 456.667 66.2764 458.036 57.1348L461.769 68.4704L418.276 120.029H405.956L362.276 67.9219L366.383 57.1348C367.876 66.1545 368.872 75.1133 369.369 84.0111C369.867 92.787 370.116 102.416 370.116 112.898V148.551H334.463Z" fill="black"/>
<path d="M50.198 339L111.425 211.018H117.398L178.998 339H174.145L125.798 238.077C124.927 236.492 123.994 234.725 122.998 232.775C122.127 230.825 121.131 228.753 120.011 226.559C119.016 224.365 118.02 222.171 117.025 219.977C116.029 217.783 114.971 215.65 113.851 213.578H114.598C113.851 215.528 112.98 217.6 111.985 219.794C110.989 221.866 109.931 224.06 108.811 226.376C107.691 228.57 106.634 230.703 105.638 232.775C104.767 234.725 103.896 236.553 103.025 238.26L54.8647 339H50.198ZM72.2247 298.229L74.0914 294.206H155.478L157.345 298.229H72.2247Z" fill="#E6FE58"/>
<path d="M214.694 339V211.018H277.787C286.125 211.018 293.218 212.542 299.067 215.589C305.04 218.514 309.583 222.597 312.694 227.838C315.929 233.08 317.547 239.235 317.547 246.304C317.547 254.349 315.991 261.479 312.88 267.696C309.769 273.79 305.227 278.605 299.254 282.139C293.28 285.552 286.063 287.259 277.6 287.259H218.8V339H214.694ZM218.8 283.236H277.04C285.005 283.236 291.663 281.774 297.014 278.848C302.489 275.801 306.534 271.474 309.147 265.867C311.885 260.261 313.254 253.74 313.254 246.304C313.254 239.844 311.885 234.299 309.147 229.667C306.534 225.035 302.551 221.439 297.2 218.88C291.849 216.32 285.129 215.04 277.04 215.04H218.8V283.236Z" fill="#E6FE58"/>
<path d="M362.714 339V211.018H425.808C434.146 211.018 441.239 212.542 447.088 215.589C453.061 218.514 457.603 222.597 460.714 227.838C463.95 233.08 465.568 239.235 465.568 246.304C465.568 254.349 464.012 261.479 460.901 267.696C457.79 273.79 453.248 278.605 447.275 282.139C441.301 285.552 434.083 287.259 425.621 287.259H366.821V339H362.714ZM366.821 283.236H425.061C433.026 283.236 439.683 281.774 445.034 278.848C450.51 275.801 454.555 271.474 457.168 265.867C459.906 260.261 461.274 253.74 461.274 246.304C461.274 239.844 459.906 234.299 457.168 229.667C454.555 225.035 450.572 221.439 445.221 218.88C439.87 216.32 433.15 215.04 425.061 215.04H366.821V283.236Z" fill="#E6FE58"/>
</svg>
