<svg width="382" height="44" viewBox="0 0 382 44" fill="none" xmlns="http://www.w3.org/2000/svg">
<rect width="135" height="44" rx="8" fill="#E6FE58"/>
<path d="M25.6854 39.48C22.7734 39.48 20.0854 39.112 17.6214 38.376C15.1894 37.608 13.0934 36.504 11.3334 35.064C9.57344 33.592 8.21344 31.768 7.25344 29.592C6.29344 27.384 5.81344 24.856 5.81344 22.008C5.81344 19.48 6.32544 17.16 7.34944 15.048C8.40544 12.904 9.87744 11.048 11.7654 9.48C13.6534 7.912 15.8934 6.696 18.4854 5.832C21.0774 4.968 23.9254 4.536 27.0294 4.536C29.4614 4.536 31.7014 4.808 33.7494 5.352C35.8294 5.864 37.6374 6.536 39.1734 7.368C40.7414 8.2 42.0374 9.08 43.0614 10.008L37.3974 16.296C36.5334 15.656 35.5734 15.08 34.5174 14.568C33.4934 14.024 32.3574 13.592 31.1094 13.272C29.8614 12.92 28.4534 12.744 26.8854 12.744C25.3174 12.744 23.8454 12.984 22.4694 13.464C21.1254 13.912 19.9574 14.552 18.9654 15.384C17.9734 16.184 17.1894 17.16 16.6134 18.312C16.0694 19.432 15.7974 20.664 15.7974 22.008C15.7974 23.704 16.0854 25.144 16.6614 26.328C17.2694 27.48 18.0854 28.424 19.1094 29.16C20.1334 29.896 21.3174 30.44 22.6614 30.792C24.0054 31.112 25.3974 31.272 26.8374 31.272C28.3094 31.272 29.6374 31.128 30.8214 30.84C32.0374 30.552 33.0934 30.152 33.9894 29.64C34.8854 29.128 35.5734 28.52 36.0534 27.816C36.5334 27.08 36.7734 26.264 36.7734 25.368V24.312L38.0694 26.616H25.9734V19.8H45.6534C45.6854 20.248 45.7174 20.824 45.7494 21.528C45.7814 22.2 45.7974 22.824 45.7974 23.4C45.8294 23.976 45.8454 24.344 45.8454 24.504C45.8454 26.936 45.3654 29.08 44.4054 30.936C43.4454 32.792 42.0694 34.36 40.2774 35.64C38.5174 36.888 36.4054 37.848 33.9414 38.52C31.4774 39.16 28.7254 39.48 25.6854 39.48ZM59.8583 39V23.64L60.6743 27.048L43.5383 5.4H54.9623L67.5383 21.912H61.9703L74.0663 5.4H84.8183L69.1223 26.136L69.4583 23.256V39H59.8583ZM86.0047 39V5.4H94.3087L108.997 24.552H103.045L117.781 5.4H125.989V39H116.821V29.64C116.821 26.952 116.885 24.44 117.013 22.104C117.173 19.768 117.429 17.4 117.781 15L118.741 17.976L107.557 31.512H104.389L93.1567 17.832L94.2127 15C94.5967 17.368 94.8527 19.72 94.9807 22.056C95.1087 24.36 95.1727 26.888 95.1727 29.64V39H86.0047Z" fill="black"/>
<rect width="135" height="44" rx="8" fill="#E6FE58"/>
<path d="M25.6854 39.48C22.7734 39.48 20.0854 39.112 17.6214 38.376C15.1894 37.608 13.0934 36.504 11.3334 35.064C9.57344 33.592 8.21344 31.768 7.25344 29.592C6.29344 27.384 5.81344 24.856 5.81344 22.008C5.81344 19.48 6.32544 17.16 7.34944 15.048C8.40544 12.904 9.87744 11.048 11.7654 9.48C13.6534 7.912 15.8934 6.696 18.4854 5.832C21.0774 4.968 23.9254 4.536 27.0294 4.536C29.4614 4.536 31.7014 4.808 33.7494 5.352C35.8294 5.864 37.6374 6.536 39.1734 7.368C40.7414 8.2 42.0374 9.08 43.0614 10.008L37.3974 16.296C36.5334 15.656 35.5734 15.08 34.5174 14.568C33.4934 14.024 32.3574 13.592 31.1094 13.272C29.8614 12.92 28.4534 12.744 26.8854 12.744C25.3174 12.744 23.8454 12.984 22.4694 13.464C21.1254 13.912 19.9574 14.552 18.9654 15.384C17.9734 16.184 17.1894 17.16 16.6134 18.312C16.0694 19.432 15.7974 20.664 15.7974 22.008C15.7974 23.704 16.0854 25.144 16.6614 26.328C17.2694 27.48 18.0854 28.424 19.1094 29.16C20.1334 29.896 21.3174 30.44 22.6614 30.792C24.0054 31.112 25.3974 31.272 26.8374 31.272C28.3094 31.272 29.6374 31.128 30.8214 30.84C32.0374 30.552 33.0934 30.152 33.9894 29.64C34.8854 29.128 35.5734 28.52 36.0534 27.816C36.5334 27.08 36.7734 26.264 36.7734 25.368V24.312L38.0694 26.616H25.9734V19.8H45.6534C45.6854 20.248 45.7174 20.824 45.7494 21.528C45.7814 22.2 45.7974 22.824 45.7974 23.4C45.8294 23.976 45.8454 24.344 45.8454 24.504C45.8454 26.936 45.3654 29.08 44.4054 30.936C43.4454 32.792 42.0694 34.36 40.2774 35.64C38.5174 36.888 36.4054 37.848 33.9414 38.52C31.4774 39.16 28.7254 39.48 25.6854 39.48ZM59.8583 39V23.64L60.6743 27.048L43.5383 5.4H54.9623L67.5383 21.912H61.9703L74.0663 5.4H84.8183L69.1223 26.136L69.4583 23.256V39H59.8583ZM86.0047 39V5.4H94.3087L108.997 24.552H103.045L117.781 5.4H125.989V39H116.821V29.64C116.821 26.952 116.885 24.44 117.013 22.104C117.173 19.768 117.429 17.4 117.781 15L118.741 17.976L107.557 31.512H104.389L93.1567 17.832L94.2127 15C94.5967 17.368 94.8527 19.72 94.9807 22.056C95.1087 24.36 95.1727 26.888 95.1727 29.64V39H86.0047Z" fill="black"/>
<path d="M162.283 39V5.4H178.651C180.667 5.4 182.459 5.848 184.027 6.744C185.595 7.608 186.843 8.792 187.771 10.296C188.731 11.768 189.211 13.432 189.211 15.288C189.211 17.336 188.731 19.112 187.771 20.616C186.811 22.12 185.499 23.288 183.835 24.12C182.203 24.952 180.315 25.368 178.171 25.368H164.683V39H162.283ZM188.107 39L177.403 24.552L179.563 23.4L190.987 39H188.107ZM164.683 22.968H177.883C179.611 22.968 181.131 22.648 182.443 22.008C183.755 21.336 184.779 20.44 185.515 19.32C186.251 18.168 186.619 16.856 186.619 15.384C186.619 13.976 186.235 12.696 185.467 11.544C184.731 10.392 183.707 9.48 182.395 8.808C181.115 8.136 179.659 7.8 178.027 7.8H164.683V22.968ZM216.691 39.336C213.587 39.336 210.867 38.664 208.531 37.32C206.227 35.976 204.435 34.104 203.155 31.704C201.875 29.304 201.235 26.584 201.235 23.544V5.4H203.635V23.352C203.635 26.008 204.195 28.36 205.315 30.408C206.435 32.456 207.987 34.056 209.971 35.208C211.955 36.328 214.179 36.888 216.643 36.888C219.299 36.888 221.619 36.328 223.603 35.208C225.619 34.056 227.187 32.456 228.307 30.408C229.459 28.36 230.035 26.008 230.035 23.352V5.4H232.387V23.592C232.387 26.632 231.731 29.352 230.419 31.752C229.139 34.12 227.315 35.976 224.947 37.32C222.611 38.664 219.859 39.336 216.691 39.336ZM253.919 39V7.8H241.391V5.4H269.183V7.8H256.319V39H253.919ZM277.674 39V36.504H285.786V7.896H277.674V5.4H296.298V7.896H288.186V36.504H296.298V39H277.674ZM309.517 39V5.4H312.061L341.053 36.312L340.573 37.56C340.541 37.112 340.525 36.216 340.525 34.872C340.525 33.528 340.509 32.008 340.477 30.312C340.477 28.584 340.461 26.904 340.429 25.272C340.429 23.608 340.429 22.184 340.429 21C340.429 19.816 340.413 19.144 340.381 18.984V5.4H342.781V39H340.093L311.245 8.28L311.533 6.936C311.533 7.256 311.533 7.896 311.533 8.856C311.565 9.816 311.597 10.936 311.629 12.216C311.693 13.496 311.741 14.824 311.773 16.2C311.837 17.544 311.869 18.792 311.869 19.944C311.901 21.064 311.917 21.912 311.917 22.488V39H309.517ZM356.58 39V5.4H381.492V7.8H358.98V36.6H381.3V39H356.58ZM357.828 22.872V20.472H378.756V22.872H357.828Z" fill="#F5F5F5"/>
</svg>