<svg width="88" height="15" viewBox="0 0 88 15" fill="none" xmlns="http://www.w3.org/2000/svg">
<path d="M0 2.69663C0 1.20732 1.22044 0 2.72593 0H43.2741C44.7796 0 46 1.20732 46 2.69663V12.1348C46 13.6241 44.7796 14.8315 43.2741 14.8315H2.72592C1.22044 14.8315 0 13.6241 0 12.1348V2.69663Z" fill="#E6FE58"/>
<path d="M8.75208 13.3079C7.75984 13.3079 6.84393 13.1838 6.00434 12.9357C5.17566 12.6769 4.46147 12.3047 3.86176 11.8193C3.26206 11.3231 2.79865 10.7083 2.47154 9.97483C2.14443 9.23056 1.98088 8.37843 1.98088 7.41843C1.98088 6.56629 2.15533 5.78427 2.50425 5.07236C2.86407 4.34966 3.36565 3.72404 4.00896 3.19551C4.65228 2.66697 5.41554 2.25708 6.29874 1.96584C7.18194 1.67461 8.15237 1.52899 9.21003 1.52899C10.0387 1.52899 10.802 1.62067 11.4998 1.80404C12.2085 1.97663 12.8246 2.20315 13.348 2.48359C13.8823 2.76404 14.3239 3.06067 14.6728 3.37348L12.7428 5.49303C12.4484 5.2773 12.1213 5.08315 11.7615 4.91056C11.4126 4.72719 11.0255 4.58157 10.6003 4.47371C10.175 4.35506 9.69525 4.29573 9.16096 4.29573C8.62668 4.29573 8.12511 4.37663 7.65625 4.53843C7.1983 4.68944 6.80031 4.90517 6.4623 5.18562C6.12428 5.45528 5.85714 5.78427 5.66087 6.17258C5.47551 6.55011 5.38283 6.96539 5.38283 7.41843C5.38283 7.99011 5.48096 8.47551 5.67723 8.87461C5.8844 9.26292 6.16245 9.58112 6.51136 9.82921C6.86028 10.0773 7.26372 10.2607 7.72167 10.3793C8.17963 10.4872 8.65394 10.5411 9.14461 10.5411C9.64618 10.5411 10.0987 10.4926 10.5021 10.3955C10.9165 10.2984 11.2763 10.1636 11.5816 9.99101C11.8869 9.81843 12.1213 9.61348 12.2849 9.37618C12.4484 9.12809 12.5302 8.85303 12.5302 8.55101V8.19506L12.9718 8.97169H8.85021V6.67416H15.556C15.5669 6.82517 15.5778 7.01933 15.5887 7.25663C15.5996 7.48315 15.6051 7.69348 15.6051 7.88764C15.616 8.0818 15.6214 8.20584 15.6214 8.25978C15.6214 9.07955 15.4579 9.80225 15.1307 10.4279C14.8036 11.0535 14.3348 11.582 13.7242 12.0135C13.1245 12.4342 12.4048 12.7578 11.5652 12.9843C10.7256 13.2 9.78793 13.3079 8.75208 13.3079Z" fill="black"/>
<path d="M20.3962 13.1461V7.96854L20.6742 9.1173L14.8353 1.82022H18.7279L23.0131 7.38607H21.1158L25.2374 1.82022H28.9011L23.5528 8.80989L23.6673 7.8391V13.1461H20.3962Z" fill="black"/>
<path d="M29.3053 13.1461V1.82022H32.1348L37.1396 8.27595H35.1115L40.1327 1.82022H42.9295V13.1461H39.8056V9.99101C39.8056 9.08494 39.8274 8.2382 39.871 7.45079C39.9255 6.66337 40.0127 5.86517 40.1327 5.05618L40.4598 6.05933L36.6489 10.622H35.5695L31.7423 6.01079L32.1021 5.05618C32.2329 5.85438 32.3202 6.64719 32.3638 7.43461C32.4074 8.21124 32.4292 9.06337 32.4292 9.99101V13.1461H29.3053Z" fill="black"/>
<path d="M51.5 13.2917L56.8646 1.96584H57.388L62.7853 13.2917H62.3601L58.124 4.36045C58.0477 4.22023 57.9659 4.06382 57.8787 3.89124C57.8023 3.71865 57.7151 3.53528 57.617 3.34112C57.5297 3.14697 57.4425 2.95281 57.3553 2.75865C57.2681 2.5645 57.1754 2.37573 57.0772 2.19236H57.1427C57.0772 2.36494 57.0009 2.54832 56.9137 2.74247C56.8265 2.92584 56.7338 3.12 56.6356 3.32494C56.5375 3.5191 56.4448 3.70786 56.3576 3.89124C56.2813 4.06382 56.2049 4.22562 56.1286 4.37663L51.9089 13.2917H51.5ZM53.43 9.68359L53.5935 9.32764H60.7245L60.8881 9.68359H53.43Z" fill="white"/>
<path d="M65.9129 13.2917V1.96584H71.4411C72.1717 1.96584 72.7932 2.10067 73.3057 2.37034C73.829 2.62921 74.227 2.99056 74.4996 3.45438C74.7831 3.9182 74.9249 4.46292 74.9249 5.08854C74.9249 5.80045 74.7886 6.43146 74.516 6.98157C74.2434 7.5209 73.8454 7.94697 73.322 8.25978C72.7986 8.5618 72.1662 8.71281 71.4248 8.71281H66.2728V13.2917H65.9129ZM66.2728 8.35685H71.3757C72.0735 8.35685 72.6569 8.22742 73.1257 7.96854C73.6055 7.69888 73.9599 7.31596 74.1889 6.81978C74.4287 6.3236 74.5487 5.74652 74.5487 5.08854C74.5487 4.51685 74.4287 4.02607 74.1889 3.61618C73.9599 3.20629 73.611 2.88809 73.1421 2.66157C72.6732 2.43506 72.0844 2.3218 71.3757 2.3218H66.2728V8.35685Z" fill="white"/>
<path d="M78.8824 13.2917V1.96584H84.4106C85.1411 1.96584 85.7626 2.10067 86.2751 2.37034C86.7985 2.62921 87.1965 2.99056 87.4691 3.45438C87.7526 3.9182 87.8943 4.46292 87.8943 5.08854C87.8943 5.80045 87.758 6.43146 87.4854 6.98157C87.2128 7.5209 86.8148 7.94697 86.2915 8.25978C85.7681 8.5618 85.1357 8.71281 84.3942 8.71281H79.2422V13.2917H78.8824ZM79.2422 8.35685H84.3452C85.043 8.35685 85.6263 8.22742 86.0952 7.96854C86.575 7.69888 86.9293 7.31596 87.1583 6.81978C87.3982 6.3236 87.5181 5.74652 87.5181 5.08854C87.5181 4.51685 87.3982 4.02607 87.1583 3.61618C86.9293 3.20629 86.5804 2.88809 86.1115 2.66157C85.6427 2.43506 85.0539 2.3218 84.3452 2.3218H79.2422V8.35685Z" fill="white"/>
<path d="M0 2.69663C0 1.20732 1.22044 0 2.72593 0H43.2741C44.7796 0 46 1.20732 46 2.69663V12.1348C46 13.6241 44.7796 14.8315 43.2741 14.8315H2.72592C1.22044 14.8315 0 13.6241 0 12.1348V2.69663Z" fill="#E6FE58"/>
<path d="M8.75208 13.3079C7.75984 13.3079 6.84393 13.1838 6.00434 12.9357C5.17566 12.6769 4.46147 12.3047 3.86176 11.8193C3.26206 11.3231 2.79865 10.7083 2.47154 9.97483C2.14443 9.23056 1.98088 8.37843 1.98088 7.41843C1.98088 6.56629 2.15533 5.78427 2.50425 5.07236C2.86407 4.34966 3.36565 3.72404 4.00896 3.19551C4.65228 2.66697 5.41554 2.25708 6.29874 1.96584C7.18194 1.67461 8.15237 1.52899 9.21003 1.52899C10.0387 1.52899 10.802 1.62067 11.4998 1.80404C12.2085 1.97663 12.8246 2.20315 13.348 2.48359C13.8823 2.76404 14.3239 3.06067 14.6728 3.37348L12.7428 5.49303C12.4484 5.2773 12.1213 5.08315 11.7615 4.91056C11.4126 4.72719 11.0255 4.58157 10.6003 4.47371C10.175 4.35506 9.69525 4.29573 9.16096 4.29573C8.62668 4.29573 8.12511 4.37663 7.65625 4.53843C7.1983 4.68944 6.80031 4.90517 6.4623 5.18562C6.12428 5.45528 5.85714 5.78427 5.66087 6.17258C5.47551 6.55011 5.38283 6.96539 5.38283 7.41843C5.38283 7.99011 5.48096 8.47551 5.67723 8.87461C5.8844 9.26292 6.16245 9.58112 6.51136 9.82921C6.86028 10.0773 7.26372 10.2607 7.72167 10.3793C8.17963 10.4872 8.65394 10.5411 9.14461 10.5411C9.64618 10.5411 10.0987 10.4926 10.5021 10.3955C10.9165 10.2984 11.2763 10.1636 11.5816 9.99101C11.8869 9.81843 12.1213 9.61348 12.2849 9.37618C12.4484 9.12809 12.5302 8.85303 12.5302 8.55101V8.19506L12.9718 8.97169H8.85021V6.67416H15.556C15.5669 6.82517 15.5778 7.01933 15.5887 7.25663C15.5996 7.48315 15.6051 7.69348 15.6051 7.88764C15.616 8.0818 15.6214 8.20584 15.6214 8.25978C15.6214 9.07955 15.4579 9.80225 15.1307 10.4279C14.8036 11.0535 14.3348 11.582 13.7242 12.0135C13.1245 12.4342 12.4048 12.7578 11.5652 12.9843C10.7256 13.2 9.78793 13.3079 8.75208 13.3079Z" fill="black"/>
<path d="M20.3962 13.1461V7.96854L20.6742 9.1173L14.8353 1.82022H18.7279L23.0131 7.38607H21.1158L25.2374 1.82022H28.9011L23.5528 8.80989L23.6673 7.8391V13.1461H20.3962Z" fill="black"/>
<path d="M29.3053 13.1461V1.82022H32.1348L37.1396 8.27595H35.1115L40.1327 1.82022H42.9295V13.1461H39.8056V9.99101C39.8056 9.08494 39.8274 8.2382 39.871 7.45079C39.9255 6.66337 40.0127 5.86517 40.1327 5.05618L40.4598 6.05933L36.6489 10.622H35.5695L31.7423 6.01079L32.1021 5.05618C32.2329 5.85438 32.3202 6.64719 32.3638 7.43461C32.4074 8.21124 32.4292 9.06337 32.4292 9.99101V13.1461H29.3053Z" fill="black"/>
<path d="M51.5 13.6288L56.8646 2.30292H57.388L62.7853 13.6288H62.3601L58.124 4.69753C58.0477 4.5573 57.9659 4.4009 57.8787 4.22831C57.8023 4.05573 57.7151 3.87236 57.617 3.6782C57.5297 3.48405 57.4425 3.28989 57.3553 3.09573C57.2681 2.90157 57.1754 2.71281 57.0772 2.52944H57.1427C57.0772 2.70202 57.0009 2.88539 56.9137 3.07955C56.8265 3.26292 56.7338 3.45708 56.6356 3.66202C56.5375 3.85618 56.4448 4.04494 56.3576 4.22831C56.2813 4.4009 56.2049 4.5627 56.1286 4.71371L51.9089 13.6288H51.5ZM53.43 10.0207L53.5935 9.66472H60.7245L60.8881 10.0207H53.43Z" fill="#E6FE58"/>
<path d="M65.9129 13.6288V2.30292H71.4411C72.1717 2.30292 72.7932 2.43775 73.3057 2.70742C73.829 2.96629 74.227 3.32764 74.4996 3.79146C74.7831 4.25528 74.9249 4.8 74.9249 5.42562C74.9249 6.13753 74.7886 6.76854 74.516 7.31865C74.2434 7.85798 73.8454 8.28405 73.322 8.59685C72.7986 8.89888 72.1662 9.04989 71.4248 9.04989H66.2728V13.6288H65.9129ZM66.2728 8.69393H71.3757C72.0735 8.69393 72.6569 8.5645 73.1257 8.30562C73.6055 8.03596 73.9599 7.65304 74.1889 7.15686C74.4287 6.66068 74.5487 6.0836 74.5487 5.42562C74.5487 4.85393 74.4287 4.36315 74.1889 3.95326C73.9599 3.54337 73.611 3.22517 73.1421 2.99865C72.6732 2.77214 72.0844 2.65888 71.3757 2.65888H66.2728V8.69393Z" fill="#E6FE58"/>
<path d="M78.8824 13.6288V2.30292H84.4106C85.1411 2.30292 85.7626 2.43775 86.2751 2.70742C86.7985 2.96629 87.1965 3.32764 87.4691 3.79146C87.7526 4.25528 87.8943 4.8 87.8943 5.42562C87.8943 6.13753 87.758 6.76854 87.4854 7.31865C87.2128 7.85798 86.8148 8.28405 86.2915 8.59685C85.7681 8.89888 85.1357 9.04989 84.3942 9.04989H79.2422V13.6288H78.8824ZM79.2422 8.69393H84.3452C85.043 8.69393 85.6263 8.5645 86.0952 8.30562C86.575 8.03596 86.9293 7.65304 87.1583 7.15686C87.3982 6.66068 87.5181 6.0836 87.5181 5.42562C87.5181 4.85393 87.3982 4.36315 87.1583 3.95326C86.9293 3.54337 86.5804 3.22517 86.1115 2.99865C85.6427 2.77214 85.0539 2.65888 84.3452 2.65888H79.2422V8.69393Z" fill="#E6FE58"/>
</svg>
